#!OML:ASF E:/inclinewalkrobotboard/Project1/Captureday1/Session1/subject1.ASF
:FULLY-SPECIFIED
:DEGREES
51
root 0 0 0 -4.487193055868438 -2.304521770148668 1.7512485971055143
lowerback 11.957902218942674 0.04490102269323826 -2.4657719251435086
upperback 1.0855664253521526 -0.17844672541100248 0.8437470139394984
thorax -5.6085112205135585 -0.01204808759875542 2.2921876623232897
lowerneck -16.291334603142122 -2.6762646932618948 -2.2019702352952897
upperneck 19.128992417844934 -3.17604110732579 0.37788887368998525
head 8.73545165789115 -1.6383199866260816 0.09793088316630377
rclavicle 1.5843455089703636E-15 -1.6226228747467964E-16
rhumerus -31.65219068214993 -23.135296105417577 -76.2813039124363
rradius 26.146333558317423
rwrist 2.819562498821031
rhand -18.88216532339063 22.909258273738438
rfingers 7.125020000000022
rthumb 7.420575971857264 -7.008563684798677
lclavicle -1.1110152478611466E-15 4.015229003108484E-16
lhumerus -31.12280590318401 -2.6847249417452788 83.46373500229184
lradius 29.321714039275633
lwrist 6.727009295297866
lhand -27.600728208245997 24.3724064221972
lfingers 7.12502000000002
lthumb -0.9898537341269504 54.361462513122234
rfemur -29.16157368945105 -0.44061198699455684 21.16675981521277
rtibia 60.93692944400602
rfoot -7.167734526269601 -8.076372829547964
rtoes 4.428583052498056
lfemur 0.2457377905296081 -3.4128956097799312 -26.730869630214336
ltibia 25.58838381943998
lfoot -16.387141469563737 1.050872285926288
ltoes -2.6346867187491405
52
root 0 0 0 -3.1949749182777425 -1.137813084515734 2.6431045042045205
lowerback 11.713219079089443 -0.7467173029797188 -3.5892535209333714
upperback 0.8925314819719294 -1.349742648164044 1.0953146096012958
thorax -5.557206903601218 -0.5606786893937412 3.3641548117258253
lowerneck -17.45833263928097 -2.609222983039872 -2.3915751788229787
upperneck 17.636437893310635 -2.9881737374684296 0.29276310167913544
head 8.432928107479896 -1.5749508360579356 0.11928308586774719
rclavicle 2.0649374451004828E-15 -7.100407039793496E-16
rhumerus -31.45370640223986 -22.927506420983697 -76.21484006740333
rradius 26.45607189372003
rwrist 2.6330391251574
rhand -18.894167326210127 22.95542744211873
rfingers 7.125020000000023
rthumb 7.40836615674332 -6.961147045114334
lclavicle 3.105921234899112E-16 -4.20319755550299E-16
lhumerus -27.084213995125033 -4.713757001771793 82.80922669610972
lradius 31.039468648231967
lwrist 7.087688406107416
lhand -27.921682942723677 24.77856434150522
lfingers 7.125020000000006
lthumb -1.299667363999557 54.767884017748116
rfemur -31.925225673147636 0.46238474315254985 20.31518424381258
rtibia 54.95506597906513
rfoot -7.322810573585146 -10.060062981329555
rtoes 1.7054344974888516
lfemur 5.024957885396325 -3.13764997815206 -28.351732409305185
ltibia 22.360994260053662
lfoot -17.476804674475417 0.7127034754142945
ltoes 0.3151406391497211
53
root 0 0 0 -1.9189587079707173 -0.10748553794200078 3.1992337637227295
lowerback 10.54874002789393 -1.3162670470768338 -4.502418609326205
upperback 0.6358812143060235 -2.2024078133139486 1.2501364029692448
thorax -5.0840996374424225 -0.9672819743352379 4.154618557294563
lowerneck -17.64468003602375 -2.4802367528866363 -2.323588275941898
upperneck 18.318900455044794 -2.807226088698055 0.11557883303777938
head 8.676941664827426 -1.4770868885796942 0.06399029501084064
rclavicle 3.122194495410565E-15 -9.780436914469568E-16
rhumerus -31.66507999163641 -23.3271595554518 -76.0944329801511
rradius 26.141511930095987
rwrist 2.8759655977968466
rhand -18.86088695848787 22.90869568911278
rfingers 7.125020000000022
rthumb 7.4412326820533785 -7.013941651651599
lclavicle 2.0976468712295445E-15 -6.5612232953797075E-16
lhumerus -24.836259145876916 -5.561360040008518 82.21122002222528
lradius 31.86174620054576
lwrist 7.3445715466697745
lhand -28.095525695509533 25.012016642712137
lfingers 7.125020000000001
lthumb -1.4703438412700844 55.00290114483664
rfemur -38.19410971557379 3.461236941611649 18.29436066811962
rtibia 39.11888263979354
rfoot -7.512322262216541 -15.122625416559654
rtoes -3.5016093617886765
lfemur 8.794941647445924 -2.920953160389867 -29.53482626011357
ltibia 19.95246641887519
lfoot -18.111074329715976 0.2221356547076443
ltoes 2.263336499991663
54
root 0 0 0 -1.4594648205187564 0.41503942810325345 3.0525434163017002
lowerback 10.190241506808004 -1.4922837728868168 -4.716806919561062
upperback 0.45575545420200614 -2.439443505760794 1.383779268392251
thorax -5.065910641752869 -1.082866265943517 4.440261800347671
lowerneck -17.3489891831974 -2.4675666337213844 -2.063386946889259
upperneck 20.097433928185673 -2.8092877852885083 -0.2683353357668885
head 9.258094321330839 -1.4775655412187907 -0.11354381963437049
rclavicle 3.7755568073237286E-15 -1.0161698739994575E-15
rhumerus -32.29452039580071 -24.249266795810552 -75.85824190229097
rradius 25.432947655991484
rwrist 3.2870929300205196
rhand -18.84379829147516 22.609493857032597
rfingers 7.125020000000021
rthumb 7.458941633026665 -7.319960818769914
lclavicle 2.94946209420247E-15 -6.176734793495404E-16
lhumerus -24.138539106496218 -5.492767985280078 81.79480136153184
lradius 31.966351846125953
lwrist 7.447095510106996
lhand -28.121337759157832 25.231536211064636
lfingers 7.125020000000002
lthumb -1.4981441862681173 55.22369939092009
rfemur -31.813784776031582 7.648700940886794 19.54129575668544
rtibia 16.79500038008547
rfoot -8.501687852878312 -14.875425783911037
rtoes -4.596890073778421
lfemur 11.75407142707893 -3.305076802042603 -29.68563256388333
ltibia 19.778222961455715
lfoot -17.123028759145342 -1.2616198868909447
ltoes 1.536418004031109
